<svg xmlns="http://www.w3.org/2000/svg" viewBox="0 0 128 128" width="128" height="128">
  <style>
    .cell { fill: #0357CA; }
    @media (prefers-color-scheme: dark) {
      .cell { fill: #F1F5F9; }
    }
  </style>

  <!-- Row 0 (top) — all full opacity -->
  <rect class="cell" x="2.88" y="2.88" width="26.24" height="26.24" rx="7.04" opacity="1"/>
  <rect class="cell" x="34.88" y="2.88" width="26.24" height="26.24" rx="7.04" opacity="1"/>
  <rect class="cell" x="66.88" y="2.88" width="26.24" height="26.24" rx="7.04" opacity="1"/>
  <rect class="cell" x="98.88" y="2.88" width="26.24" height="26.24" rx="7.04" opacity="1"/>

  <!-- Row 1 -->
  <rect class="cell" x="2.88" y="34.88" width="26.24" height="26.24" rx="7.04" opacity="1"/>
  <rect class="cell" x="34.88" y="34.88" width="26.24" height="26.24" rx="7.04" opacity="0.75"/>
  <rect class="cell" x="66.88" y="34.88" width="26.24" height="26.24" rx="7.04" opacity="0.75"/>
  <rect class="cell" x="98.88" y="34.88" width="26.24" height="26.24" rx="7.04" opacity="0.3"/>

  <!-- Row 2 -->
  <rect class="cell" x="2.88" y="66.88" width="26.24" height="26.24" rx="7.04" opacity="1"/>
  <rect class="cell" x="34.88" y="66.88" width="26.24" height="26.24" rx="7.04" opacity="0.75"/>
  <rect class="cell" x="66.88" y="66.88" width="26.24" height="26.24" rx="7.04" opacity="0.3"/>
  <rect class="cell" x="98.88" y="66.88" width="26.24" height="26.24" rx="7.04" opacity="0.3"/>

  <!-- Row 3 (bottom) -->
  <rect class="cell" x="2.88" y="98.88" width="26.24" height="26.24" rx="7.04" opacity="1"/>
  <rect class="cell" x="34.88" y="98.88" width="26.24" height="26.24" rx="7.04" opacity="0.3"/>
  <rect class="cell" x="66.88" y="98.88" width="26.24" height="26.24" rx="7.04" opacity="0.3"/>
  <rect class="cell" x="98.88" y="98.88" width="26.24" height="26.24" rx="7.04" opacity="0.3"/>
</svg>
